<?xml version="1.0" encoding="UTF-8" standalone="no"?>
<svg
   width="16"
   height="16"
   fill="currentColor"
   class="bi bi-floppy"
   viewBox="0 0 16 16"
   version="1.1"
   id="svg2"
   sodipodi:docname="floppy.svg"
   inkscape:version="1.3.2 (091e20e, 2023-11-25, custom)"
   xmlns:inkscape="http://www.inkscape.org/namespaces/inkscape"
   xmlns:sodipodi="http://sodipodi.sourceforge.net/DTD/sodipodi-0.dtd"
   xmlns="http://www.w3.org/2000/svg"
   xmlns:svg="http://www.w3.org/2000/svg">
  <defs
     id="defs2" />
  <sodipodi:namedview
     id="namedview2"
     pagecolor="#ffffff"
     bordercolor="#000000"
     borderopacity="0.25"
     inkscape:showpageshadow="2"
     inkscape:pageopacity="0.0"
     inkscape:pagecheckerboard="0"
     inkscape:deskcolor="#d1d1d1"
     inkscape:zoom="55.5625"
     inkscape:cx="8.0089989"
     inkscape:cy="8"
     inkscape:window-width="1920"
     inkscape:window-height="1009"
     inkscape:window-x="4472"
     inkscape:window-y="356"
     inkscape:window-maximized="1"
     inkscape:current-layer="svg2" />
  <path
     d="M11 2H9v3h2z"
     id="path1"
     style="fill:#cccccc;fill-opacity:1" />
  <path
     d="M1.5 0h11.586a1.5 1.5 0 0 1 1.06.44l1.415 1.414A1.5 1.5 0 0 1 16 2.914V14.5a1.5 1.5 0 0 1-1.5 1.5h-13A1.5 1.5 0 0 1 0 14.5v-13A1.5 1.5 0 0 1 1.5 0M1 1.5v13a.5.5 0 0 0 .5.5H2v-4.5A1.5 1.5 0 0 1 3.5 9h9a1.5 1.5 0 0 1 1.5 1.5V15h.5a.5.5 0 0 0 .5-.5V2.914a.5.5 0 0 0-.146-.353l-1.415-1.415A.5.5 0 0 0 13.086 1H13v4.5A1.5 1.5 0 0 1 11.5 7h-7A1.5 1.5 0 0 1 3 5.5V1H1.5a.5.5 0 0 0-.5.5m3 4a.5.5 0 0 0 .5.5h7a.5.5 0 0 0 .5-.5V1H4zM3 15h10v-4.5a.5.5 0 0 0-.5-.5h-9a.5.5 0 0 0-.5.5z"
     id="path2"
     style="fill:#cccccc;fill-opacity:1" />
</svg>
