<?xml version="1.0" encoding="UTF-8" standalone="no"?>
<svg
   width="16"
   height="16"
   fill="currentColor"
   class="bi bi-folder2-open"
   viewBox="0 0 16 16"
   version="1.1"
   id="svg4"
   sodipodi:docname="folder2-open.svg"
   inkscape:version="1.2.2 (b0a8486541, 2022-12-01)"
   xmlns:inkscape="http://www.inkscape.org/namespaces/inkscape"
   xmlns:sodipodi="http://sodipodi.sourceforge.net/DTD/sodipodi-0.dtd"
   xmlns="http://www.w3.org/2000/svg"
   xmlns:svg="http://www.w3.org/2000/svg">
  <defs
     id="defs8" />
  <sodipodi:namedview
     id="namedview6"
     pagecolor="#ffffff"
     bordercolor="#999999"
     borderopacity="1"
     inkscape:showpageshadow="0"
     inkscape:pageopacity="0"
     inkscape:pagecheckerboard="0"
     inkscape:deskcolor="#d1d1d1"
     showgrid="false"
     inkscape:zoom="51.0625"
     inkscape:cx="8"
     inkscape:cy="8"
     inkscape:window-width="1920"
     inkscape:window-height="1050"
     inkscape:window-x="1920"
     inkscape:window-y="0"
     inkscape:window-maximized="1"
     inkscape:current-layer="svg4" />
  <path
     d="M1 3.5A1.5 1.5 0 0 1 2.5 2h2.764c.958 0 1.76.56 2.311 1.184C7.985 3.648 8.48 4 9 4h4.5A1.5 1.5 0 0 1 15 5.5v.64c.57.265.94.876.856 1.546l-.64 5.124A2.5 2.5 0 0 1 12.733 15H3.266a2.5 2.5 0 0 1-2.481-2.19l-.64-5.124A1.5 1.5 0 0 1 1 6.14zM2 6h12v-.5a.5.5 0 0 0-.5-.5H9c-.964 0-1.71-.629-2.174-1.154C6.374 3.334 5.82 3 5.264 3H2.5a.5.5 0 0 0-.5.5zm-.367 1a.5.5 0 0 0-.496.562l.64 5.124A1.5 1.5 0 0 0 3.266 14h9.468a1.5 1.5 0 0 0 1.489-1.314l.64-5.124A.5.5 0 0 0 14.367 7z"
     id="path2"
     style="fill:#cccccc;fill-opacity:1" />
</svg>
